<svg t="1567409876504" class="icon" viewBox="0 0 1024 1024" version="1.1" xmlns="http://www.w3.org/2000/svg" p-id="2999" width="200" height="200"><path d="M705.828571 738.742857l-160.914285-325.485714v-1.828572c0-1.828571-1.828571-1.828571-1.828572-3.657142s-1.828571-1.828571-1.828571-3.657143l-1.828572-1.828572-1.828571-1.828571-1.828571-1.828572c-1.828571 0-1.828571-1.828571-3.657143-1.828571H530.285714c-1.828571 0-1.828571-1.828571-3.657143-1.828571h-21.942857c-1.828571 0-1.828571 0-3.657143 1.828571h-1.828571c-1.828571 0-1.828571 1.828571-3.657143 1.828571l-1.828571 1.828572c-1.828571 0-1.828571 1.828571-1.828572 1.828571l-1.828571 1.828572-1.828572 1.828571c0 1.828571-1.828571 1.828571-1.828571 3.657143l-160.914286 325.485714c-9.142857 18.285714-1.828571 40.228571 16.457143 49.371429 5.485714 1.828571 10.971429 3.657143 16.457143 3.657143 12.8 0 25.6-7.314286 32.914286-20.114286l32.914285-65.828571h188.342858l32.914285 65.828571c5.485714 12.8 20.114286 20.114286 32.914286 20.114286 5.485714 0 10.971429-1.828571 16.457143-3.657143 10.971429-5.485714 18.285714-27.428571 10.971428-45.714286z m-252.342857-107.885714L512 512l58.514286 118.857143h-117.028572z" fill="#654DFF" p-id="3000"></path><path d="M819.2 0H201.142857C129.828571 0 73.142857 56.685714 73.142857 128v768c0 71.314286 56.685714 128 128 128h621.714286c71.314286 0 128-56.685714 128-128V310.857143c0-71.314286-56.685714-128-128-128H173.714286C159.085714 182.857143 146.285714 170.057143 146.285714 155.428571V128c0-31.085714 23.771429-54.857143 54.857143-54.857143h618.057143c20.114286 0 36.571429-16.457143 36.571429-36.571428s-16.457143-36.571429-36.571429-36.571429zM201.142857 950.857143c-31.085714 0-54.857143-23.771429-54.857143-54.857143V256h676.571429c31.085714 0 54.857143 23.771429 54.857143 54.857143v585.142857c0 31.085714-23.771429 54.857143-54.857143 54.857143H201.142857z" fill="#A272FF" p-id="3001"></path></svg>