<svg class="icon" viewBox="0 0 1024 1024" version="1.1" xmlns="http://www.w3.org/2000/svg" p-id="1464" height="128" width="128"><path d="M944.63488 1011.75808c-18.37568 0-36.1216-6.96832-49.42848-20.28032l-386.58048-386.57536-386.57536 386.57536c-13.30688 13.312-30.42304 20.28032-49.4336 20.28032-18.3808 0-36.1216-6.96832-48.79872-20.28032-13.312-13.30688-20.28032-30.4128-20.28032-49.4336 0-18.37568 6.96832-36.1216 20.28032-49.42336l386.57536-386.58048L23.81824 119.46496c-13.312-13.312-20.28032-30.41792-20.28032-49.4336 0-18.37568 6.96832-36.1216 20.28032-49.42848C37.12512 7.296 54.23616 0.32256 72.61696 0.32256c18.37568 0 36.12672 6.97344 49.4336 20.28032l386.57536 386.57536 386.58048-386.57536c13.312-13.30688 30.41792-20.28032 49.42848-20.28032 18.3808 0 36.1216 6.97344 49.42848 20.28032a69.23264 69.23264 0 0 1 0 98.2272L607.488 505.40544l386.57536 386.57536a69.23776 69.23776 0 0 1 0 98.23232c-13.30688 14.57664-30.41792 21.54496-49.42848 21.54496z" p-id="1465"></path></svg>